<svg width="182" height="48" viewBox="0 0 182 48" fill="none" xmlns="http://www.w3.org/2000/svg">
<path d="M163.645 29.76V25.296H175.981V29.76H163.645ZM173.605 15L181.669 33H175.693L169.165 17.424H170.677L164.125 33H158.173L166.213 15H173.605Z" fill="#712FFF"/>
<path d="M140.32 17.424H145.912V33H140.32V17.424ZM133.648 15H152.584V19.968H133.648V15Z" fill="#712FFF"/>
<path d="M114.294 33.408C112.134 33.408 110.238 33.016 108.606 32.232C106.99 31.448 105.726 30.352 104.814 28.944C103.918 27.536 103.47 25.888 103.47 24C103.47 22.112 103.918 20.464 104.814 19.056C105.726 17.648 106.99 16.552 108.606 15.768C110.238 14.984 112.134 14.592 114.294 14.592C116.454 14.592 118.342 14.984 119.958 15.768C121.59 16.552 122.854 17.648 123.75 19.056C124.662 20.464 125.118 22.112 125.118 24C125.118 25.888 124.662 27.536 123.75 28.944C122.854 30.352 121.59 31.448 119.958 32.232C118.342 33.016 116.454 33.408 114.294 33.408ZM114.294 28.44C115.366 28.44 116.286 28.264 117.054 27.912C117.838 27.544 118.438 27.032 118.854 26.376C119.27 25.704 119.478 24.912 119.478 24C119.478 23.088 119.27 22.304 118.854 21.648C118.438 20.976 117.838 20.464 117.054 20.112C116.286 19.744 115.366 19.56 114.294 19.56C113.222 19.56 112.294 19.744 111.51 20.112C110.742 20.464 110.15 20.976 109.734 21.648C109.318 22.304 109.11 23.088 109.11 24C109.11 24.912 109.318 25.704 109.734 26.376C110.15 27.032 110.742 27.544 111.51 27.912C112.294 28.264 113.222 28.44 114.294 28.44Z" fill="#712FFF"/>
<path d="M73.56 15H79.152V33H73.56V15ZM87.576 15H93.168V33H87.576V15ZM76.704 21.36H89.832V26.304H76.704V21.36Z" fill="#712FFF"/>
<g clip-path="url(#clip0_13_3297)">
<path d="M24 0C10.767 0 0 10.767 0 24C0 37.233 10.767 48 24 48C37.233 48 48 37.233 48 24C48 10.767 37.233 0 24 0ZM24 46C11.869 46 2 36.131 2 24C2 11.869 11.869 2 24 2C36.131 2 46 11.869 46 24C46 36.131 36.131 46 24 46ZM24 13C17.935 13 13 17.935 13 24C13 30.065 17.935 35 24 35C30.065 35 35 30.065 35 24C35 17.935 30.065 13 24 13ZM24 33C19.037 33 15 28.963 15 24C15 19.037 19.037 15 24 15C28.963 15 33 19.037 33 24C33 28.963 28.963 33 24 33ZM24 36.333V38.333C16.097 38.333 9.667 31.903 9.667 24H11.667C11.667 30.801 17.199 36.333 24 36.333ZM38.333 24H36.333C36.333 17.199 30.801 11.666 24 11.666V9.666C31.903 9.666 38.333 16.097 38.333 24ZM24 39.667V41.667C14.259 41.667 6.333 33.741 6.333 24H8.333C8.333 32.639 15.361 39.667 24 39.667ZM41.667 24H39.667C39.667 15.361 32.639 8.334 24 8.334V6.334C33.741 6.334 41.667 14.259 41.667 24ZM24 43V45C12.421 45 3 35.579 3 24H5C5 34.477 13.523 43 24 43ZM45 24H43C43 13.523 34.477 5 24 5V3C35.579 3 45 12.421 45 24ZM24 21C22.346 21 21 22.346 21 24C21 25.654 22.346 27 24 27C25.654 27 27 25.654 27 24C27 22.346 25.654 21 24 21ZM24 25C23.448 25 23 24.552 23 24C23 23.448 23.448 23 24 23C24.552 23 25 23.448 25 24C25 24.552 24.552 25 24 25Z" fill="#712FFF"/>
</g>
<defs>
<clipPath id="clip0_13_3297">
<rect width="48" height="48" fill="white"/>
</clipPath>
</defs>
</svg>
