<svg width="24" height="24" viewBox="0 0 24 24" fill="none" xmlns="http://www.w3.org/2000/svg">
<g clip-path="url(#clip0_92_1218)">
<path d="M2.30336 8.38315C2.60829 8.59895 3.52306 9.23225 5.04769 10.2925C6.57232 11.3527 7.74511 12.1642 8.55668 12.7366C8.64582 12.7975 8.83346 12.9336 9.12432 13.1447C9.41517 13.3558 9.65442 13.5247 9.84676 13.656C10.0391 13.7874 10.269 13.9328 10.541 14.0923C10.8131 14.2518 11.0711 14.3738 11.3104 14.4535C11.5496 14.5333 11.7748 14.5755 11.9812 14.5755H11.9953H12.0094C12.2158 14.5755 12.4363 14.5333 12.6802 14.4535C12.9195 14.3738 13.1775 14.2518 13.4496 14.0923C13.7217 13.9328 13.9562 13.7874 14.1439 13.656C14.3362 13.5247 14.5754 13.3558 14.8663 13.1447C15.1572 12.9336 15.3448 12.7975 15.4339 12.7366C16.2549 12.1642 18.3471 10.7147 21.7013 8.38315C22.3534 7.92811 22.8976 7.37924 23.3339 6.73656C23.7701 6.09387 23.9906 5.41834 23.9906 4.71466C23.9906 4.12358 23.7795 3.62162 23.3526 3.19942C22.9304 2.7819 22.4285 2.5708 21.8468 2.5708H2.14386C1.45426 2.5708 0.928851 2.80067 0.558249 3.26509C0.182955 3.73421 0 4.31122 0 5.01021C0 5.57315 0.243941 6.183 0.736513 6.83976C1.22909 7.49183 1.7498 8.00786 2.30336 8.38315Z" fill="white"/>
<path d="M22.663 9.81874C19.7357 11.8031 17.5121 13.3418 15.9922 14.4395C15.4855 14.8148 15.0727 15.1057 14.7537 15.3168C14.4347 15.5279 14.0172 15.739 13.4871 15.9595C12.9617 16.18 12.4691 16.2879 12.0141 16.2879H12H11.9859C11.5309 16.2879 11.0383 16.18 10.5129 15.9595C9.98749 15.739 9.56529 15.5279 9.24629 15.3168C8.92729 15.1057 8.51446 14.8148 8.00782 14.4395C6.80219 13.5576 4.58327 12.0142 1.35106 9.81874C0.84441 9.47628 0.394058 9.0916 0 8.65063V19.2855C0 19.8766 0.211102 20.3785 0.628616 20.8008C1.04613 21.2183 1.55278 21.4294 2.14386 21.4294H21.8608C22.4519 21.4294 22.9539 21.2183 23.3761 20.8008C23.7936 20.3832 24.0047 19.8766 24.0047 19.2855V8.65063C23.6153 9.08222 23.1697 9.47159 22.663 9.81874Z" fill="white"/>
</g>
<defs>
<clipPath id="clip0_92_1218">
<rect width="24" height="24" fill="white"/>
</clipPath>
</defs>
</svg>
