<svg width="24" height="24" viewBox="0 0 24 24" fill="none" xmlns="http://www.w3.org/2000/svg">
<g clip-path="url(#clip0_92_1225)">
<path d="M23.9885 18.9361C24.0394 19.3257 23.9207 19.6645 23.6328 19.9524L20.2537 23.306C20.1013 23.4754 19.9023 23.6195 19.6567 23.7379C19.4111 23.8565 19.1697 23.9328 18.9327 23.9666C18.9158 23.9666 18.8648 23.9709 18.7801 23.9794C18.6955 23.9878 18.5854 23.9922 18.4499 23.9922C18.128 23.9922 17.6071 23.9371 16.8873 23.827C16.1674 23.7168 15.2867 23.4458 14.245 23.0139C13.2032 22.582 12.0218 21.9341 10.7007 21.0703C9.37954 20.2066 7.97364 19.0208 6.48309 17.5133C5.29742 16.3446 4.31502 15.2267 3.53586 14.1596C2.75671 13.0925 2.13 12.1058 1.65574 11.1996C1.18143 10.2935 0.825731 9.47196 0.588598 8.73515C0.351465 7.99835 0.190553 7.36317 0.105863 6.82962C0.0211726 6.29607 -0.0127036 5.87685 0.00423452 5.57197C0.0211726 5.26708 0.0296416 5.0977 0.0296416 5.06383C0.0635178 4.82669 0.139739 4.58533 0.258306 4.33972C0.376872 4.09412 0.520846 3.8951 0.690226 3.74266L4.06937 0.363512C4.3065 0.126379 4.57751 0.0078125 4.8824 0.0078125C5.10259 0.0078125 5.29738 0.0713303 5.46676 0.198366C5.63614 0.325401 5.78012 0.482079 5.89868 0.668397L8.61724 5.82604C8.76969 6.09705 8.81203 6.39347 8.74428 6.71529C8.67653 7.03711 8.53255 7.30812 8.31236 7.52832L7.06741 8.77326C7.03353 8.80714 7.00389 8.86219 6.97849 8.93841C6.95308 9.01463 6.94037 9.07815 6.94037 9.12896C7.00813 9.48466 7.16057 9.89118 7.3977 10.3485C7.60096 10.755 7.91431 11.2505 8.33777 11.8348C8.76122 12.4192 9.36252 13.0924 10.1417 13.8546C10.9039 14.6339 11.5814 15.2393 12.1742 15.6713C12.7669 16.1031 13.2626 16.4208 13.6606 16.6241C14.0586 16.8273 14.3635 16.9501 14.5752 16.9923L14.8927 17.0559C14.9266 17.0559 14.9818 17.0432 15.0579 17.0178C15.1341 16.9923 15.1892 16.9627 15.2231 16.9288L16.6713 15.4552C16.9763 15.1842 17.3318 15.0487 17.7384 15.0487C18.0264 15.0487 18.255 15.0995 18.4243 15.2012H18.4497L23.3532 18.0976C23.7091 18.318 23.9207 18.5973 23.9885 18.9361Z" fill="white"/>
</g>
<defs>
<clipPath id="clip0_92_1225">
<rect width="24" height="24" fill="white"/>
</clipPath>
</defs>
</svg>
