<svg width="24" height="24" viewBox="0 0 24 24" fill="none" xmlns="http://www.w3.org/2000/svg">
<path d="M11.9997 0C7.12808 0 3.16431 3.96377 3.16431 8.83584C3.16431 10.1067 3.42442 11.32 3.93702 12.4425C6.1461 17.2765 10.3815 22.3802 11.6273 23.8291C11.7206 23.9374 11.8567 23.9998 11.9999 23.9998C12.1431 23.9998 12.2792 23.9374 12.3725 23.8291C13.6178 22.3804 17.8532 17.277 20.063 12.4425C20.5759 11.32 20.8357 10.1067 20.8357 8.83584C20.8352 3.96377 16.8715 0 11.9997 0ZM11.9997 13.4252C9.46906 13.4252 7.41005 11.3662 7.41005 8.83559C7.41005 6.30475 9.46906 4.24574 11.9997 4.24574C14.5302 4.24574 16.5893 6.30475 16.5893 8.83559C16.5895 11.3662 14.5305 13.4252 11.9997 13.4252Z" fill="white"/>
</svg>
